name rise42.5664peak47.7979fall81.9185.mot
datacolumns 19
datarows 15
range 10.62662400000000 10.64996000000000
endheader
time	ground_force1_vx	ground_force1_vy	ground_force1_vz	ground_force1_px	ground_force1_py	ground_force1_pz	ground_force2_vx	ground_force2_vy	ground_force2_vz	ground_force2_px	ground_force2_py	ground_force2_pz	ground_torque1_x	ground_torque1_y	ground_torque1_z	ground_torque2_x	ground_torque2_y	ground_torque2_z	
10.62662400000000	59.61947700000000	807.66035099999999	53.70670300000000	0.26526300000000	0.00000000000000	0.09813300000000	0.00000000000000	0.00000000000000	0.00000000000000	0.00000000000000	0.00000000000000	0.00000000000000	0.00000000000000	16.09940300000000	0.00000000000000	0.00000000000000	0.00000000000000	0.00000000000000	
10.62828900000000	58.69679000000000	807.97431900000004	53.68178400000000	0.26411700000000	0.00000000000000	0.09816000000000	0.00000000000000	0.00000000000000	0.00000000000000	0.00000000000000	0.00000000000000	0.00000000000000	0.00000000000000	16.10085800000000	0.00000000000000	0.00000000000000	0.00000000000000	0.00000000000000	
10.62996200000000	57.77406300000000	808.13452500000005	53.64754700000000	0.26298200000000	0.00000000000000	0.09818700000000	0.00000000000000	0.00000000000000	0.00000000000000	0.00000000000000	0.00000000000000	0.00000000000000	0.00000000000000	16.09855200000000	0.00000000000000	0.00000000000000	0.00000000000000	0.00000000000000	
10.63162500000000	56.85216100000000	808.14383499999997	53.60430100000000	0.26185500000000	0.00000000000000	0.09821500000000	0.00000000000000	0.00000000000000	0.00000000000000	0.00000000000000	0.00000000000000	0.00000000000000	0.00000000000000	16.09259000000000	0.00000000000000	0.00000000000000	0.00000000000000	0.00000000000000	
10.63329300000000	55.93187600000000	808.00527999999997	53.55232500000000	0.26073500000000	0.00000000000000	0.09824200000000	0.00000000000000	0.00000000000000	0.00000000000000	0.00000000000000	0.00000000000000	0.00000000000000	0.00000000000000	16.08306800000000	0.00000000000000	0.00000000000000	0.00000000000000	0.00000000000000	
10.63496300000000	55.01393000000000	807.72205599999995	53.49186700000000	0.25962300000000	0.00000000000000	0.09827000000000	0.00000000000000	0.00000000000000	0.00000000000000	0.00000000000000	0.00000000000000	0.00000000000000	0.00000000000000	16.07006700000000	0.00000000000000	0.00000000000000	0.00000000000000	0.00000000000000	
10.63662900000000	54.09897500000000	807.29752299999996	53.42314600000000	0.25851500000000	0.00000000000000	0.09829800000000	0.00000000000000	0.00000000000000	0.00000000000000	0.00000000000000	0.00000000000000	0.00000000000000	0.00000000000000	16.05366100000000	0.00000000000000	0.00000000000000	0.00000000000000	0.00000000000000	
10.63828800000000	53.18759800000000	806.73520199999996	53.34635800000000	0.25741300000000	0.00000000000000	0.09832600000000	0.00000000000000	0.00000000000000	0.00000000000000	0.00000000000000	0.00000000000000	0.00000000000000	0.00000000000000	16.03391500000000	0.00000000000000	0.00000000000000	0.00000000000000	0.00000000000000	
10.63996100000000	52.28032100000000	806.03877299999999	53.26167400000000	0.25631400000000	0.00000000000000	0.09835400000000	0.00000000000000	0.00000000000000	0.00000000000000	0.00000000000000	0.00000000000000	0.00000000000000	0.00000000000000	16.01088700000000	0.00000000000000	0.00000000000000	0.00000000000000	0.00000000000000	
10.64162400000000	51.37761000000000	805.21206900000004	53.16924300000000	0.25521700000000	0.00000000000000	0.09838200000000	0.00000000000000	0.00000000000000	0.00000000000000	0.00000000000000	0.00000000000000	0.00000000000000	0.00000000000000	15.98462800000000	0.00000000000000	0.00000000000000	0.00000000000000	0.00000000000000	
10.64328800000000	50.47987100000000	804.25907800000004	53.06919900000000	0.25412100000000	0.00000000000000	0.09841100000000	0.00000000000000	0.00000000000000	0.00000000000000	0.00000000000000	0.00000000000000	0.00000000000000	0.00000000000000	15.95518500000000	0.00000000000000	0.00000000000000	0.00000000000000	0.00000000000000	
10.64495500000000	49.58745900000000	803.18392900000003	52.96165800000000	0.25302500000000	0.00000000000000	0.09844000000000	0.00000000000000	0.00000000000000	0.00000000000000	0.00000000000000	0.00000000000000	0.00000000000000	0.00000000000000	15.92260000000000	0.00000000000000	0.00000000000000	0.00000000000000	0.00000000000000	
10.64662800000000	48.70068000000000	801.99089400000003	52.84672300000000	0.25192800000000	0.00000000000000	0.09846900000000	0.00000000000000	0.00000000000000	0.00000000000000	0.00000000000000	0.00000000000000	0.00000000000000	0.00000000000000	15.88691500000000	0.00000000000000	0.00000000000000	0.00000000000000	0.00000000000000	
10.64828900000000	47.81979300000000	800.68437900000004	52.72449000000000	0.25082900000000	0.00000000000000	0.09849900000000	0.00000000000000	0.00000000000000	0.00000000000000	0.00000000000000	0.00000000000000	0.00000000000000	0.00000000000000	15.84816700000000	0.00000000000000	0.00000000000000	0.00000000000000	0.00000000000000	
10.64996000000000	46.94501800000000	799.26891400000000	52.59504400000000	0.24972600000000	0.00000000000000	0.09852900000000	0.00000000000000	0.00000000000000	0.00000000000000	0.00000000000000	0.00000000000000	0.00000000000000	0.00000000000000	15.80639800000000	0.00000000000000	0.00000000000000	0.00000000000000	0.00000000000000	
